<svg width="131" height="61" viewBox="0 0 131 61" fill="none" xmlns="http://www.w3.org/2000/svg">
<g filter="url(#filter0_d_3061_7978)">
<mask id="path-1-inside-1_3061_7978" fill="white">
<path fill-rule="evenodd" clip-rule="evenodd" d="M110.42 10.6787C115.943 10.6787 120.42 15.1559 120.42 20.6787L120.42 34.6444C120.42 40.1673 115.943 44.6444 110.42 44.6444L70.4511 44.6444L68.2147 49.1173C67.4777 50.5914 65.374 50.5914 64.637 49.1173L62.4005 44.6444L20.6937 44.6444C15.1709 44.6444 10.6937 40.1673 10.6937 34.6444L10.6937 20.6787C10.6937 15.1559 15.1709 10.6787 20.6937 10.6787L110.42 10.6787Z"/>
</mask>
<path fill-rule="evenodd" clip-rule="evenodd" d="M110.42 10.6787C115.943 10.6787 120.42 15.1559 120.42 20.6787L120.42 34.6444C120.42 40.1673 115.943 44.6444 110.42 44.6444L70.4511 44.6444L68.2147 49.1173C67.4777 50.5914 65.374 50.5914 64.637 49.1173L62.4005 44.6444L20.6937 44.6444C15.1709 44.6444 10.6937 40.1673 10.6937 34.6444L10.6937 20.6787C10.6937 15.1559 15.1709 10.6787 20.6937 10.6787L110.42 10.6787Z" fill="white"/>
<path d="M70.4511 44.6444L69.1094 43.9736L69.524 43.1444L70.4511 43.1444L70.4511 44.6444ZM68.2147 49.1173L69.5563 49.7881L69.5563 49.7881L68.2147 49.1173ZM64.637 49.1173L63.2953 49.7882L63.2953 49.7882L64.637 49.1173ZM62.4005 44.6444L62.4005 43.1444L63.3275 43.1444L63.7421 43.9736L62.4005 44.6444ZM118.92 20.6787C118.92 15.9843 115.114 12.1787 110.42 12.1787L110.42 9.17871C116.771 9.17871 121.92 14.3274 121.92 20.6787L118.92 20.6787ZM118.92 34.6444L118.92 20.6787L121.92 20.6787L121.92 34.6444L118.92 34.6444ZM110.42 43.1444C115.114 43.1444 118.92 39.3389 118.92 34.6444L121.92 34.6444C121.92 40.9957 116.771 46.1444 110.42 46.1444L110.42 43.1444ZM70.4511 43.1444L110.42 43.1444L110.42 46.1444L70.4511 46.1444L70.4511 43.1444ZM66.873 48.4465L69.1094 43.9736L71.7927 45.3152L69.5563 49.7881L66.873 48.4465ZM65.9786 48.4465C66.1629 48.815 66.6888 48.815 66.873 48.4465L69.5563 49.7881C68.2665 52.3678 64.5852 52.3678 63.2953 49.7882L65.9786 48.4465ZM63.7421 43.9736L65.9786 48.4465L63.2953 49.7882L61.0588 45.3153L63.7421 43.9736ZM20.6937 43.1444L62.4005 43.1444L62.4005 46.1444L20.6937 46.1444L20.6937 43.1444ZM12.1937 34.6444C12.1937 39.3388 15.9993 43.1444 20.6937 43.1444L20.6937 46.1444C14.3425 46.1444 9.19374 40.9957 9.19374 34.6444L12.1937 34.6444ZM12.1937 20.6787L12.1937 34.6444L9.19374 34.6444L9.19374 20.6787L12.1937 20.6787ZM20.6937 12.1787C15.9993 12.1787 12.1937 15.9843 12.1937 20.6787L9.19374 20.6787C9.19374 14.3274 14.3425 9.1787 20.6937 9.1787L20.6937 12.1787ZM110.42 12.1787L20.6937 12.1787L20.6937 9.1787L110.42 9.17871L110.42 12.1787Z" fill="#FF3196" fill-opacity="0.34" mask="url(#path-1-inside-1_3061_7978)"/>
</g>
<path d="M38.6542 22.687V21.427H35.2662V22.687H38.6542ZM40.0962 24.563V23.303H33.5722V24.563H40.0962ZM43.9742 33.033V31.731H37.0862V29.785H35.4482V33.033H43.9742ZM43.7082 30.163V20.881H42.0702V24.213H40.4322V25.473H42.0702V26.803H40.4322V28.063H42.0702V30.163H43.7082ZM39.7882 27.069C39.7882 25.809 38.5422 24.871 36.8762 24.871C35.2102 24.871 33.9642 25.809 33.9642 27.069C33.9642 28.357 35.2242 29.281 36.8762 29.281C38.5422 29.281 39.7882 28.357 39.7882 27.069ZM38.1362 27.083C38.1362 27.615 37.5762 28.007 36.8902 28.007C36.2042 28.007 35.6302 27.615 35.6302 27.083C35.6302 26.551 36.1902 26.159 36.8902 26.159C37.5762 26.159 38.1362 26.551 38.1362 27.083ZM55.8075 33.355V20.881H54.2535V25.781H53.2455V21.105H51.7195V32.781H53.2455V27.097H54.2535V33.355H55.8075ZM51.3275 29.281C49.8435 28.413 49.0455 26.635 49.0455 24.199V23.681H50.9915V22.379H45.3635V23.681H47.4635V24.227C47.4635 26.691 46.6515 28.483 44.8875 29.659L45.8815 30.751C46.8755 30.177 47.9535 28.721 48.2335 27.573C48.5555 28.679 49.6055 29.967 50.4175 30.471L51.3275 29.281ZM67.9165 28.119L67.7905 26.859C67.3565 26.943 66.7965 27.013 66.1385 27.069C66.2365 26.033 66.3485 24.997 66.4325 23.975L64.8785 23.807L64.7105 27.139L63.1985 27.181C63.1425 26.047 63.0865 24.927 63.0445 23.793L61.4345 23.989L61.7425 27.209H60.1045C60.1885 27.657 60.2585 28.119 60.3285 28.567C62.9465 28.567 66.2505 28.413 67.9165 28.119ZM70.1145 20.881H68.4905V29.925H70.1145V25.753H71.8925V24.395H70.1145V20.881ZM70.4225 32.991V31.675H63.6465V29.127H62.0225V32.991H70.4225ZM67.4545 23.247V21.959H60.5105V23.247H67.4545ZM77.6078 22.379H72.5538V30.107H77.6078V22.379ZM82.7878 33.355V20.881H81.2198V25.781H80.2118V21.105H78.6718V32.781H80.2118V27.097H81.2198V33.355H82.7878ZM76.0678 28.847H74.0938V23.639H76.0678V28.847ZM93.8791 30.961C93.8791 29.491 92.3111 28.553 89.5951 28.553C86.8931 28.553 85.3251 29.491 85.3251 30.961C85.3251 32.431 86.8931 33.355 89.5951 33.355C92.3111 33.355 93.8791 32.431 93.8791 30.961ZM91.1351 27.475L90.9251 26.215C89.9731 26.481 87.6211 26.593 86.0671 26.593V25.277H89.9591V21.553H84.3591V22.841H88.3071V24.045H84.4151V27.895H86.0811C87.7751 27.895 90.0571 27.727 91.1351 27.475ZM95.3351 25.305H93.7251V23.933H95.3351V22.603H93.7251V20.881H92.0731V28.399H93.7251V26.635H95.3351V25.305ZM89.5951 29.841C91.2611 29.841 92.1851 30.303 92.1851 30.961C92.1851 31.619 91.2611 32.067 89.5951 32.067C87.9571 32.067 87.0051 31.619 87.0051 30.961C87.0051 30.303 87.9571 29.841 89.5951 29.841Z" fill="#FF3196"/>
<defs>
<filter id="filter0_d_3061_7978" x="0.693359" y="0.678711" width="129.727" height="59.5439" filterUnits="userSpaceOnUse" color-interpolation-filters="sRGB">
<feFlood flood-opacity="0" result="BackgroundImageFix"/>
<feColorMatrix in="SourceAlpha" type="matrix" values="0 0 0 0 0 0 0 0 0 0 0 0 0 0 0 0 0 0 127 0" result="hardAlpha"/>
<feOffset/>
<feGaussianBlur stdDeviation="5"/>
<feComposite in2="hardAlpha" operator="out"/>
<feColorMatrix type="matrix" values="0 0 0 0 1 0 0 0 0 0.833333 0 0 0 0 0.915254 0 0 0 1 0"/>
<feBlend mode="normal" in2="BackgroundImageFix" result="effect1_dropShadow_3061_7978"/>
<feBlend mode="normal" in="SourceGraphic" in2="effect1_dropShadow_3061_7978" result="shape"/>
</filter>
</defs>
</svg>
